<svg version="1.2" xmlns="http://www.w3.org/2000/svg" viewBox="0 0 390 120" width="300" height="92">
	<title>footer-logo-svg</title>
	<defs>
		<clipPath clipPathUnits="userSpaceOnUse" id="cp1">
			<path d="m-6 11.14h122.54v106.56h-122.54z"/>
		</clipPath>
	</defs>
	<style>
		.s0 { fill: #ffffff } 
	</style>
	<g id="Clip-Path" clip-path="url(#cp1)">
		<g id="Layer">
			<path id="Layer" fill-rule="evenodd" class="s0" d="m93.8 50.5l22.7-39.4h-38.5l-22.8 39.4-22.7-39.4h-38.5l42 72.7 19.2 33.4 19.3-33.4-19.3-33.3z"/>
		</g>
	</g>
	<path id="Layer" fill-rule="evenodd" class="s0" d="m199.9 108.8h-20.5l-7.4-22.7h-37.7l-7.4 22.7h-19.9l33.9-98.4h25zm-47.6-77.9l-12.7 38.8h27l-12.7-38.8z"/>
	<path id="Layer" class="s0" d="m229.1 109.4h-18.8v-98.4h22.2l39.5 63.4 1.8-0.3v-63.1h18.7v98.4h-19.9l-41.8-67.7-1.7 0.3z"/>
	<path id="Layer" class="s0" d="m347.9 110.2q-10.2 0-18.2-2.6-7.9-2.5-13.3-6.6-5.3-4.1-8.1-9l10.7-13.1h1.7q4.4 6.6 11.3 10.5 6.8 4 15.9 4 7.9 0 11.8-3.3 4-3.3 4-9.1 0-3.5-1.3-5.9-1.3-2.3-4.2-4-3-1.7-8-2.9l-12.7-2.9q-13.2-3-19.7-10.1-6.5-7-6.5-18.2 0-8.4 4.1-14.7 4.2-6.3 12.2-9.8 8-3.5 19.1-3.5 11.3 0 19.5 3 8.1 2.9 13.7 9.1l-9.7 13.2h-1.6q-4.2-4.3-9.6-6.5-5.4-2.2-12.3-2.2-8 0-12.2 2.8-4.2 2.8-4.2 7.8 0 4.7 3 7.4 2.9 2.8 10.1 4.3l12.9 2.7q14.3 3 20.8 10.3 6.5 7.2 6.5 18.9 0 9.2-4 16-4 6.8-12 10.6-8 3.8-19.7 3.8z"/>
</svg>