<svg version="1.2" xmlns="http://www.w3.org/2000/svg" viewBox="0 0 276 74" width="276" height="74">
	<title>Modern Letter V Logo-svg</title>
	<defs>
		<clipPath clipPathUnits="userSpaceOnUse" id="cp1">
			<path d="m1.14 1.86h86.25v75h-86.25z"/>
		</clipPath>
	</defs>
	<style>
		.s0 { fill: #ff5722 } 
	</style>
	<g id="Clip-Path" clip-path="url(#cp1)">
		<g id="Layer">
			<path id="Layer" fill-rule="evenodd" class="s0" d="m71.4 29.6l15.9-27.7h-27.1l-16 27.7-15.9-27.7h-27.2l29.6 51.1 13.5 23.5 13.6-23.5-13.6-23.4z"/>
		</g>
	</g>
	<g id="Layer">
		<g id="Layer">
			<g id="Layer">
				<path id="Layer" fill-rule="evenodd" class="s0" d="m146.1 70.6h-14.5l-5.2-16h-26.5l-5.2 16h-14.1l24-69.3h17.5zm-33.5-54.8l-8.9 27.3h19l-8.9-27.3z"/>
			</g>
		</g>
	</g>
	<g id="Layer">
		<g id="Layer">
			<g id="Layer">
				<path id="Layer" class="s0" d="m166.6 71h-13.2v-69.3h15.6l27.8 44.7 1.3-0.2v-44.5h13.1v69.3h-14l-29.4-47.6-1.2 0.1z"/>
			</g>
		</g>
	</g>
	<g id="Layer">
		<g id="Layer">
			<g id="Layer">
				<path id="Layer" class="s0" d="m250.3 71.6q-7.2 0-12.8-1.8-5.7-1.8-9.4-4.7-3.7-2.9-5.7-6.3l7.5-9.2h1.2q3.1 4.6 7.9 7.4 4.8 2.7 11.3 2.7 5.5 0 8.3-2.3 2.8-2.3 2.8-6.4 0-2.5-0.9-4.1-1-1.7-3-2.9-2.1-1.1-5.7-2l-8.9-2q-9.3-2.2-13.9-7.1-4.6-5-4.5-12.9-0.1-5.8 2.9-10.3 2.9-4.5 8.5-6.9 5.7-2.5 13.5-2.5 8 0 13.7 2.1 5.7 2.1 9.6 6.5l-6.7 9.3h-1.2q-3-3.1-6.8-4.6-3.8-1.6-8.6-1.6-5.7 0-8.6 2-2.9 2-2.9 5.5 0 3.3 2 5.2 2.1 2 7.1 3l9.1 1.9q10.1 2.2 14.7 7.3 4.5 5.1 4.5 13.3 0 6.4-2.8 11.2-2.8 4.8-8.4 7.5-5.6 2.7-13.8 2.7z"/>
			</g>
		</g>
	</g>
</svg>